<?xml version="1.0" encoding="UTF-8"?>
<svg width="181px" height="60px" viewBox="0 0 181 60" version="1.1" xmlns="http://www.w3.org/2000/svg" xmlns:xlink="http://www.w3.org/1999/xlink">
    <!-- Generator: sketchtool 63.1 (101010) - https://sketch.com -->
    <title>F605C70C-7982-4F43-87B2-EDEAE32A7EE3</title>
    <desc>Created with sketchtool.</desc>
    <g id="VisualDesigns" stroke="none" stroke-width="1" fill="none" fill-rule="evenodd">
        <g id="Home_MegaMenu_InfoFor" transform="translate(-165.000000, -24.000000)" fill="#231F20" fill-rule="nonzero">
            <g id="Nav">
                <g id="PI-logo-2017-Black">
                    <g transform="translate(165.000000, 24.000000)">
                        <path d="M51.6165517,54.4841379 C51.7531034,57.96 56.3048276,58.0841379 56.9958621,58.1048276 C57.8937931,58.1048276 57.8234483,59.697931 57.1365517,59.697931 C56.4496552,59.697931 37.8372414,59.697931 37.137931,59.697931 C36.4386207,59.697931 36.3806897,58.1213793 37.2744828,58.1048276 C38.102069,58.0841379 42.7903448,57.96 43.0675862,54.4841379 C43.2165517,52.6013793 43.3448276,27.7986207 43.3448276,10.1668966 L31.617931,10.1668966 C37.7793103,12.5917241 40.8206897,16.7875862 40.7213793,22.1668966 C40.5682759,29.5365517 36.5089655,33.1944828 34.1006897,34.4772414 C29.6524138,36.8358621 21.1365517,37.6551724 14.7931034,37.2331034 C14.7931034,44.9462069 14.7227586,52.4358621 14.7931034,54.3227586 C14.9296552,58.0882759 19.7586207,57.9517241 21.2731034,58.0882759 C22.1006897,58.1586207 22.1006897,59.6813793 21.2731034,59.6813793 L0.451034483,59.6813793 C-0.103448276,59.6813793 -0.24,58.0882759 0.587586207,58.0882759 C1.41517241,58.0882759 6.24,58.2331034 6.51724138,54.4675862 C6.68275862,52.142069 7.45655172,16.0841379 7.34482759,12.7531034 C7.20827586,8.69793103 1.55172414,8.84275862 0.724137931,8.69793103 C-0.103448276,8.55310345 0.169655172,7.16275862 0.724137931,7.16275862 L57.2689655,7.16275862 C58.0965517,7.16275862 57.96,8.52413793 57.4055172,8.66896552 C56.8510345,8.8137931 51.1986207,8.80965517 51.1986207,12.4303448 C51.1986207,15.3268966 51.5503448,53.0234483 51.6124138,54.4717241 L51.6165517,54.4841379 Z M14.7889655,11.0358621 C14.3751724,11.6151724 14.6482759,33.2855172 14.6482759,34.2082759 C17.4413793,34.08 22.2082759,34.1875862 24.3806897,33.2648276 C28.862069,31.3737931 32.7765517,28.8827586 32.9337931,21.6041379 C33.0165517,17.342069 29.6234483,13.2331034 26.217931,11.7724138 C23.5531034,10.6344828 15.1075862,10.5806897 14.7889655,11.0317241 L14.7889655,11.0358621 Z M28.857931,0.00413793103 L43.9406897,4.18344828 L13.7668966,4.18344828 L28.8496552,0.00413793103 L28.857931,0.00413793103 Z" id="Shape"></path>
                        <path d="M76.1544828,20.4 C76.1544828,24.2193103 73.7793103,25.9241379 70.56,25.9241379 L68.9048276,25.9241379 L68.9048276,31.7172414 L66.182069,31.7172414 L66.182069,15.12 L70.3737931,15.12 C73.9655172,15.12 76.1544828,16.8248276 76.1544828,20.4 Z M73.3034483,20.4 C73.3034483,18.3310345 72.2110345,17.4496552 70.3531034,17.4496552 L68.8882759,17.4496552 L68.8882759,23.5282759 L70.3531034,23.5282759 C72.1696552,23.5282759 73.3034483,22.8248276 73.3034483,20.4 Z" id="Shape"></path>
                        <polygon id="Path" points="82.6303448 17.4744828 82.6303448 22.1048276 87.2110345 22.1048276 87.2110345 24.4593103 82.6303448 24.4593103 82.6303448 29.3213793 88.2496552 29.3213793 88.2496552 31.6965517 79.8910345 31.6965517 79.8910345 15.12 88.1668966 15.12 87.8772414 17.4744828"></polygon>
                        <path d="M95.1103448,25.0593103 L95.1103448,31.7048276 L92.3875862,31.7048276 L92.3875862,15.12 L96.6372414,15.12 C100.361379,15.12 102.289655,16.7048276 102.289655,19.9944828 C102.289655,22.2496552 101.342069,23.5944828 99.3931034,24.4841379 L103.117241,31.7048276 L100.001379,31.7048276 L96.8441379,25.0593103 L95.1103448,25.0593103 Z M96.8027586,22.7793103 C98.4951724,22.7793103 99.4427586,21.9848276 99.4427586,19.9944828 C99.4427586,18.1944828 98.5572414,17.4248276 96.5751724,17.4248276 L95.1103448,17.4248276 L95.1103448,22.7793103 L96.8027586,22.7793103 Z" id="Shape"></path>
                        <polygon id="Path" points="106.53931 31.7048276 106.53931 15.12 109.282759 15.12 109.282759 31.7048276"></polygon>
                        <path d="M125.023448,31.7048276 L124.663448,24.7696552 C124.53931,22.32 124.435862,19.7544828 124.477241,18.0041379 L121.878621,29.9048276 L119.284138,29.9048276 L116.52,17.9793103 C116.598621,20.2096552 116.561379,22.4896552 116.437241,24.8648276 L116.085517,31.7048276 L113.449655,31.7048276 L114.583448,15.12 L118.092414,15.12 L120.628966,26.7393103 L123.008276,15.12 L126.558621,15.12 L127.671724,31.7048276 L125.023448,31.7048276 Z" id="Path"></path>
                        <polygon id="Path" points="134.822069 17.4744828 134.822069 22.1048276 139.402759 22.1048276 139.402759 24.4593103 134.822069 24.4593103 134.822069 29.3213793 140.453793 29.3213793 140.453793 31.6965517 132.111724 31.6965517 132.111724 15.12 140.387586 15.12 140.097931 17.4744828"></polygon>
                        <polygon id="Path" points="149.735172 17.64 149.735172 31.7089655 147.008276 31.7089655 147.008276 17.64 143.172414 17.64 143.172414 15.12 153.757241 15.12 153.467586 17.64"></polygon>
                        <polygon id="Path" points="159.782069 17.4744828 159.782069 22.1048276 164.362759 22.1048276 164.362759 24.4593103 159.782069 24.4593103 159.782069 29.3213793 165.413793 29.3213793 165.413793 31.6965517 157.05931 31.6965517 157.05931 15.12 165.335172 15.12 165.049655 17.4744828"></polygon>
                        <path d="M172.249655,25.0593103 L172.249655,31.7048276 L169.526897,31.7048276 L169.526897,15.12 L173.776552,15.12 C177.50069,15.12 179.433103,16.7048276 179.433103,19.9944828 C179.433103,22.2496552 178.481379,23.5944828 176.536552,24.4841379 L180.26069,31.7048276 L177.124138,31.7048276 L173.966897,25.0593103 L172.249655,25.0593103 Z M173.942069,22.7793103 C175.634483,22.7793103 176.582069,21.9848276 176.582069,19.9944828 C176.582069,18.1944828 175.696552,17.4248276 173.714483,17.4248276 L172.249655,17.4248276 L172.249655,22.7793103 L173.942069,22.7793103 Z" id="Shape"></path>
                        <polygon id="Path" points="66.1655172 54.0082759 66.1655172 37.4234483 68.9089655 37.4234483 68.9089655 54.0082759"></polygon>
                        <path d="M81.9889655,54.0082759 L77.097931,40.5889655 C77.3428786,42.7970975 77.4672012,45.0169465 77.4703448,47.2386207 L77.4703448,54.0082759 L74.9875862,54.0082759 L74.9875862,37.4234483 L78.4344828,37.4234483 L83.4,50.8634483 C83.1647665,48.9841697 83.0417897,47.0925376 83.0317241,45.1986207 L83.0317241,37.4234483 L85.5144828,37.4234483 L85.5144828,54.0082759 L81.9889655,54.0082759 Z" id="Path"></path>
                        <path d="M100.411034,39.1034483 L99.0289655,40.9282759 C98.2333116,40.0156277 97.0825031,39.4907504 95.8717241,39.4882759 C94.5931034,39.4882759 93.6662069,40.1586207 93.6662069,41.4537931 C93.6662069,42.6537931 94.2206897,43.1834483 96.5958621,44.0482759 C99.0786207,44.9586207 100.824828,46.1586207 100.824828,49.2786207 C100.824828,52.2537931 98.822069,54.3682759 95.4206897,54.3682759 C93.4516516,54.4121324 91.5662791,53.572671 90.2813793,52.08 L91.7255172,50.2055172 C92.6241901,51.2839553 93.9548267,51.9083543 95.3586207,51.9103448 C96.8855172,51.9103448 97.977931,51.0496552 97.977931,49.4275862 C97.977931,48.0331034 97.377931,47.4124138 95.1517241,46.617931 C92.16,45.537931 90.8606897,44.1351724 90.8606897,41.6275862 C90.8606897,38.8675862 92.9006897,37.0427586 95.7062069,37.0427586 C97.5056948,36.9813623 99.2359661,37.739212 100.411034,39.1034483 Z" id="Path"></path>
                        <polygon id="Path" points="110.851034 39.9434483 110.851034 54.0124138 108.111724 54.0124138 108.111724 39.9434483 104.271724 39.9434483 104.271724 37.4234483 114.856552 37.4234483 114.566897 39.9434483"></polygon>
                        <polygon id="Path" points="119.371034 54.0082759 119.371034 37.4234483 122.114483 37.4234483 122.114483 54.0082759"></polygon>
                        <polygon id="Path" points="133.353103 39.9434483 133.353103 54.0124138 130.609655 54.0124138 130.609655 39.9434483 126.773793 39.9434483 126.773793 37.4234483 137.358621 37.4234483 137.073103 39.9434483"></polygon>
                        <path d="M146.950345,54.3682759 C143.445517,54.3682759 141.670345,51.9931034 141.670345,48.5751724 L141.670345,37.4027586 L144.393103,37.4027586 L144.393103,48.3931034 C144.393103,50.7227586 145.195862,51.8772414 146.950345,51.8772414 C148.704828,51.8772414 149.532414,50.7227586 149.532414,48.3931034 L149.532414,37.4234483 L152.275862,37.4234483 L152.275862,48.5958621 C152.275862,51.9186207 150.438621,54.3682759 146.950345,54.3682759 Z" id="Path"></path>
                        <polygon id="Path" points="163.311724 39.9434483 163.311724 54.0124138 160.568276 54.0124138 160.568276 39.9434483 156.728276 39.9434483 156.728276 37.4234483 167.313103 37.4234483 167.023448 39.9434483"></polygon>
                        <polygon id="Path" points="174.554483 39.7737931 174.554483 44.4082759 179.135172 44.4082759 179.135172 46.7586207 174.554483 46.7586207 174.554483 51.6331034 180.186207 51.6331034 180.186207 54.0082759 171.835862 54.0082759 171.835862 37.4234483 180.111724 37.4234483 179.822069 39.7737931"></polygon>
                    </g>
                </g>
            </g>
        </g>
    </g>
</svg>